<?xml version="1.0" standalone="no"?><!DOCTYPE svg PUBLIC "-//W3C//DTD SVG 1.1//EN" "http://www.w3.org/Graphics/SVG/1.1/DTD/svg11.dtd"><svg xmlns:xlink="http://www.w3.org/1999/xlink" height="400" width="600" xmlns="http://www.w3.org/2000/svg" style="font-family:'lucida grande', 'lucida sans unicode', arial, helvetica, sans-serif;font-size:12px;" version="1.1"><desc>Created with Highcharts 4.0.4</desc><defs><clipPath id="highcharts-5"><rect height="278" width="523" y="0" x="0"></rect></clipPath></defs><rect class=" highcharts-background" fill="#FFFFFF" strokeWidth="0" height="400" width="600" y="0" x="0"></rect><g  class="highcharts-grid"></g><g  class="highcharts-grid"><path opacity="1"  stroke-width="1" stroke="#C0C0C0" d="M 67 45.5 L 590 45.5" fill="none"></path><path opacity="1"  stroke-width="1" stroke="#C0C0C0" d="M 67 116.5 L 590 116.5" fill="none"></path><path opacity="1"  stroke-width="1" stroke="#C0C0C0" d="M 67 185.5 L 590 185.5" fill="none"></path><path opacity="1"  stroke-width="1" stroke="#C0C0C0" d="M 67 255.5 L 590 255.5" fill="none"></path><path opacity="1"  stroke-width="1" stroke="#C0C0C0" d="M 67 324.5 L 590 324.5" fill="none"></path></g><g  class="highcharts-axis"><path opacity="1" stroke-width="1" stroke="#C0D0E0" d="M 90.5 324 L 90.5 334" fill="none"></path><path opacity="1" stroke-width="1" stroke="#C0D0E0" d="M 102.5 324 L 102.5 334" fill="none"></path><path opacity="1" stroke-width="1" stroke="#C0D0E0" d="M 115.5 324 L 115.5 334" fill="none"></path><path opacity="1" stroke-width="1" stroke="#C0D0E0" d="M 127.5 324 L 127.5 334" fill="none"></path><path opacity="1" stroke-width="1" stroke="#C0D0E0" d="M 139.5 324 L 139.5 334" fill="none"></path><path opacity="1" stroke-width="1" stroke="#C0D0E0" d="M 151.5 324 L 151.5 334" fill="none"></path><path opacity="1" stroke-width="1" stroke="#C0D0E0" d="M 163.5 324 L 163.5 334" fill="none"></path><path opacity="1" stroke-width="1" stroke="#C0D0E0" d="M 175.5 324 L 175.5 334" fill="none"></path><path opacity="1" stroke-width="1" stroke="#C0D0E0" d="M 188.5 324 L 188.5 334" fill="none"></path><path opacity="1" stroke-width="1" stroke="#C0D0E0" d="M 200.5 324 L 200.5 334" fill="none"></path><path opacity="1" stroke-width="1" stroke="#C0D0E0" d="M 212.5 324 L 212.5 334" fill="none"></path><path opacity="1" stroke-width="1" stroke="#C0D0E0" d="M 224.5 324 L 224.5 334" fill="none"></path><path opacity="1" stroke-width="1" stroke="#C0D0E0" d="M 236.5 324 L 236.5 334" fill="none"></path><path opacity="1" stroke-width="1" stroke="#C0D0E0" d="M 248.5 324 L 248.5 334" fill="none"></path><path opacity="1" stroke-width="1" stroke="#C0D0E0" d="M 261.5 324 L 261.5 334" fill="none"></path><path opacity="1" stroke-width="1" stroke="#C0D0E0" d="M 273.5 324 L 273.5 334" fill="none"></path><path opacity="1" stroke-width="1" stroke="#C0D0E0" d="M 285.5 324 L 285.5 334" fill="none"></path><path opacity="1" stroke-width="1" stroke="#C0D0E0" d="M 297.5 324 L 297.5 334" fill="none"></path><path opacity="1" stroke-width="1" stroke="#C0D0E0" d="M 309.5 324 L 309.5 334" fill="none"></path><path opacity="1" stroke-width="1" stroke="#C0D0E0" d="M 321.5 324 L 321.5 334" fill="none"></path><path opacity="1" stroke-width="1" stroke="#C0D0E0" d="M 334.5 324 L 334.5 334" fill="none"></path><path opacity="1" stroke-width="1" stroke="#C0D0E0" d="M 346.5 324 L 346.5 334" fill="none"></path><path opacity="1" stroke-width="1" stroke="#C0D0E0" d="M 358.5 324 L 358.5 334" fill="none"></path><path opacity="1" stroke-width="1" stroke="#C0D0E0" d="M 370.5 324 L 370.5 334" fill="none"></path><path opacity="1" stroke-width="1" stroke="#C0D0E0" d="M 382.5 324 L 382.5 334" fill="none"></path><path opacity="1" stroke-width="1" stroke="#C0D0E0" d="M 394.5 324 L 394.5 334" fill="none"></path><path opacity="1" stroke-width="1" stroke="#C0D0E0" d="M 407.5 324 L 407.5 334" fill="none"></path><path opacity="1" stroke-width="1" stroke="#C0D0E0" d="M 419.5 324 L 419.5 334" fill="none"></path><path opacity="1" stroke-width="1" stroke="#C0D0E0" d="M 431.5 324 L 431.5 334" fill="none"></path><path opacity="1" stroke-width="1" stroke="#C0D0E0" d="M 443.5 324 L 443.5 334" fill="none"></path><path opacity="1" stroke-width="1" stroke="#C0D0E0" d="M 455.5 324 L 455.5 334" fill="none"></path><path opacity="1" stroke-width="1" stroke="#C0D0E0" d="M 467.5 324 L 467.5 334" fill="none"></path><path opacity="1" stroke-width="1" stroke="#C0D0E0" d="M 480.5 324 L 480.5 334" fill="none"></path><path opacity="1" stroke-width="1" stroke="#C0D0E0" d="M 492.5 324 L 492.5 334" fill="none"></path><path opacity="1" stroke-width="1" stroke="#C0D0E0" d="M 504.5 324 L 504.5 334" fill="none"></path><path opacity="1" stroke-width="1" stroke="#C0D0E0" d="M 516.5 324 L 516.5 334" fill="none"></path><path opacity="1" stroke-width="1" stroke="#C0D0E0" d="M 528.5 324 L 528.5 334" fill="none"></path><path opacity="1" stroke-width="1" stroke="#C0D0E0" d="M 540.5 324 L 540.5 334" fill="none"></path><path opacity="1" stroke-width="1" stroke="#C0D0E0" d="M 553.5 324 L 553.5 334" fill="none"></path><path opacity="1" stroke-width="1" stroke="#C0D0E0" d="M 565.5 324 L 565.5 334" fill="none"></path><path opacity="1" stroke-width="1" stroke="#C0D0E0" d="M 577.5 324 L 577.5 334" fill="none"></path><path opacity="1" stroke-width="1" stroke="#C0D0E0" d="M 590.5 324 L 590.5 334" fill="none"></path><path opacity="1" stroke-width="1" stroke="#C0D0E0" d="M 78.5 324 L 78.5 334" fill="none"></path><path opacity="1" stroke-width="1" stroke="#C0D0E0" d="M 66.5 324 L 66.5 334" fill="none"></path><text y="383" visibility="visible" style="color:#707070;fill:#707070;" class=" highcharts-xaxis-title" transform="translate(0,0)" text-anchor="middle"  x="328.5"><tspan>Year and Quarter</tspan></text><path visibility="visible"  stroke-width="1" stroke="#C0D0E0" d="M 67 324.5 L 590 324.5" fill="none"></path></g><g  class="highcharts-axis"><text y="185" visibility="visible" style="color:#707070;fill:#707070;" class=" highcharts-yaxis-title" transform="translate(0,0) rotate(270 24 185)" text-anchor="middle"  x="24"><tspan>Number of Policies</tspan></text></g><g  class="highcharts-series-group"><g clip-path="url(#highcharts-5)" transform="translate(67,46) scale(1 1)"  visibility="visible" class="highcharts-series"><rect stroke-width="1" stroke="#FFFFFF" ry="0" rx="0" fill="#a6cee3" height="37" width="6" y="223.5" x="2.5"></rect><rect stroke-width="1" stroke="#FFFFFF" ry="0" rx="0" fill="#a6cee3" height="38" width="6" y="222.5" x="14.5"></rect><rect stroke-width="1" stroke="#FFFFFF" ry="0" rx="0" fill="#a6cee3" height="39" width="6" y="221.5" x="26.5"></rect><rect stroke-width="1" stroke="#FFFFFF" ry="0" rx="0" fill="#a6cee3" height="39" width="6" y="220.5" x="39.5"></rect><rect stroke-width="1" stroke="#FFFFFF" ry="0" rx="0" fill="#a6cee3" height="40" width="6" y="219.5" x="51.5"></rect><rect stroke-width="1" stroke="#FFFFFF" ry="0" rx="0" fill="#a6cee3" height="43" width="6" y="216.5" x="63.5"></rect><rect stroke-width="1" stroke="#FFFFFF" ry="0" rx="0" fill="#a6cee3" height="43" width="6" y="215.5" x="75.5"></rect><rect stroke-width="1" stroke="#FFFFFF" ry="0" rx="0" fill="#a6cee3" height="44" width="6" y="212.5" x="87.5"></rect><rect stroke-width="1" stroke="#FFFFFF" ry="0" rx="0" fill="#a6cee3" height="44" width="6" y="209.5" x="99.5"></rect><rect stroke-width="1" stroke="#FFFFFF" ry="0" rx="0" fill="#a6cee3" height="47" width="6" y="206.5" x="112.5"></rect><rect stroke-width="1" stroke="#FFFFFF" ry="0" rx="0" fill="#a6cee3" height="46" width="6" y="206.5" x="124.5"></rect><rect stroke-width="1" stroke="#FFFFFF" ry="0" rx="0" fill="#a6cee3" height="47" width="6" y="204.5" x="136.5"></rect><rect stroke-width="1" stroke="#FFFFFF" ry="0" rx="0" fill="#a6cee3" height="49" width="6" y="202.5" x="148.5"></rect><rect stroke-width="1" stroke="#FFFFFF" ry="0" rx="0" fill="#a6cee3" height="52" width="6" y="198.5" x="160.5"></rect><rect stroke-width="1" stroke="#FFFFFF" ry="0" rx="0" fill="#a6cee3" height="53" width="6" y="196.5" x="172.5"></rect><rect stroke-width="1" stroke="#FFFFFF" ry="0" rx="0" fill="#a6cee3" height="55" width="6" y="193.5" x="185.5"></rect><rect stroke-width="1" stroke="#FFFFFF" ry="0" rx="0" fill="#a6cee3" height="58" width="6" y="188.5" x="197.5"></rect><rect stroke-width="1" stroke="#FFFFFF" ry="0" rx="0" fill="#a6cee3" height="61" width="6" y="183.5" x="209.5"></rect><rect stroke-width="1" stroke="#FFFFFF" ry="0" rx="0" fill="#a6cee3" height="64" width="6" y="179.5" x="221.5"></rect><rect stroke-width="1" stroke="#FFFFFF" ry="0" rx="0" fill="#a6cee3" height="76" width="6" y="167.5" x="233.5"></rect><rect stroke-width="1" stroke="#FFFFFF" ry="0" rx="0" fill="#a6cee3" height="81" width="6" y="160.5" x="245.5"></rect><rect stroke-width="1" stroke="#FFFFFF" ry="0" rx="0" fill="#a6cee3" height="84" width="6" y="156.5" x="258.5"></rect><rect stroke-width="1" stroke="#FFFFFF" ry="0" rx="0" fill="#a6cee3" height="86" width="6" y="154.5" x="270.5"></rect><rect stroke-width="1" stroke="#FFFFFF" ry="0" rx="0" fill="#a6cee3" height="90" width="6" y="149.5" x="282.5"></rect><rect stroke-width="1" stroke="#FFFFFF" ry="0" rx="0" fill="#a6cee3" height="95" width="6" y="143.5" x="294.5"></rect><rect stroke-width="1" stroke="#FFFFFF" ry="0" rx="0" fill="#a6cee3" height="98" width="6" y="139.5" x="306.5"></rect><rect stroke-width="1" stroke="#FFFFFF" ry="0" rx="0" fill="#a6cee3" height="101" width="6" y="136.5" x="318.5"></rect><rect stroke-width="1" stroke="#FFFFFF" ry="0" rx="0" fill="#a6cee3" height="105" width="6" y="131.5" x="331.5"></rect><rect stroke-width="1" stroke="#FFFFFF" ry="0" rx="0" fill="#a6cee3" height="108" width="6" y="125.5" x="343.5"></rect><rect stroke-width="1" stroke="#FFFFFF" ry="0" rx="0" fill="#a6cee3" height="113" width="6" y="118.5" x="355.5"></rect><rect stroke-width="1" stroke="#FFFFFF" ry="0" rx="0" fill="#a6cee3" height="116" width="6" y="112.5" x="367.5"></rect><rect stroke-width="1" stroke="#FFFFFF" ry="0" rx="0" fill="#a6cee3" height="122" width="6" y="105.5" x="379.5"></rect><rect stroke-width="1" stroke="#FFFFFF" ry="0" rx="0" fill="#a6cee3" height="129" width="6" y="95.5" x="391.5"></rect><rect stroke-width="1" stroke="#FFFFFF" ry="0" rx="0" fill="#a6cee3" height="134" width="6" y="87.5" x="404.5"></rect><rect stroke-width="1" stroke="#FFFFFF" ry="0" rx="0" fill="#a6cee3" height="138" width="6" y="76.5" x="416.5"></rect><rect stroke-width="1" stroke="#FFFFFF" ry="0" rx="0" fill="#a6cee3" height="144" width="6" y="68.5" x="428.5"></rect><rect stroke-width="1" stroke="#FFFFFF" ry="0" rx="0" fill="#a6cee3" height="148" width="6" y="62.5" x="440.5"></rect><rect stroke-width="1" stroke="#FFFFFF" ry="0" rx="0" fill="#a6cee3" height="161" width="6" y="47.5" x="452.5"></rect><rect stroke-width="1" stroke="#FFFFFF" ry="0" rx="0" fill="#a6cee3" height="164" width="6" y="43.5" x="464.5"></rect><rect stroke-width="1" stroke="#FFFFFF" ry="0" rx="0" fill="#a6cee3" height="170" width="6" y="35.5" x="477.5"></rect><rect stroke-width="1" stroke="#FFFFFF" ry="0" rx="0" fill="#a6cee3" height="175" width="6" y="29.5" x="489.5"></rect><rect stroke-width="1" stroke="#FFFFFF" ry="0" rx="0" fill="#a6cee3" height="178" width="6" y="26.5" x="501.5"></rect><rect stroke-width="1" stroke="#FFFFFF" ry="0" rx="0" fill="#a6cee3" height="179" width="6" y="25.5" x="513.5"></rect></g><g clip-path="none" transform="translate(67,46) scale(1 1)"  visibility="visible" class="highcharts-markers"></g><g clip-path="url(#highcharts-5)" transform="translate(67,46) scale(1 1)"  visibility="visible" class="highcharts-series"><rect stroke-width="1" stroke="#FFFFFF" ry="0" rx="0" fill="#1f78b4" height="3" width="6" y="260.5" x="2.5"></rect><rect stroke-width="1" stroke="#FFFFFF" ry="0" rx="0" fill="#1f78b4" height="3" width="6" y="260.5" x="14.5"></rect><rect stroke-width="1" stroke="#FFFFFF" ry="0" rx="0" fill="#1f78b4" height="3" width="6" y="260.5" x="26.5"></rect><rect stroke-width="1" stroke="#FFFFFF" ry="0" rx="0" fill="#1f78b4" height="3" width="6" y="259.5" x="39.5"></rect><rect stroke-width="1" stroke="#FFFFFF" ry="0" rx="0" fill="#1f78b4" height="3" width="6" y="259.5" x="51.5"></rect><rect stroke-width="1" stroke="#FFFFFF" ry="0" rx="0" fill="#1f78b4" height="3" width="6" y="259.5" x="63.5"></rect><rect stroke-width="1" stroke="#FFFFFF" ry="0" rx="0" fill="#1f78b4" height="4" width="6" y="258.5" x="75.5"></rect><rect stroke-width="1" stroke="#FFFFFF" ry="0" rx="0" fill="#1f78b4" height="6" width="6" y="256.5" x="87.5"></rect><rect stroke-width="1" stroke="#FFFFFF" ry="0" rx="0" fill="#1f78b4" height="7" width="6" y="253.5" x="99.5"></rect><rect stroke-width="1" stroke="#FFFFFF" ry="0" rx="0" fill="#1f78b4" height="7" width="6" y="253.5" x="112.5"></rect><rect stroke-width="1" stroke="#FFFFFF" ry="0" rx="0" fill="#1f78b4" height="8" width="6" y="252.5" x="124.5"></rect><rect stroke-width="1" stroke="#FFFFFF" ry="0" rx="0" fill="#1f78b4" height="8" width="6" y="251.5" x="136.5"></rect><rect stroke-width="1" stroke="#FFFFFF" ry="0" rx="0" fill="#1f78b4" height="8" width="6" y="251.5" x="148.5"></rect><rect stroke-width="1" stroke="#FFFFFF" ry="0" rx="0" fill="#1f78b4" height="8" width="6" y="250.5" x="160.5"></rect><rect stroke-width="1" stroke="#FFFFFF" ry="0" rx="0" fill="#1f78b4" height="8" width="6" y="249.5" x="172.5"></rect><rect stroke-width="1" stroke="#FFFFFF" ry="0" rx="0" fill="#1f78b4" height="9" width="6" y="248.5" x="185.5"></rect><rect stroke-width="1" stroke="#FFFFFF" ry="0" rx="0" fill="#1f78b4" height="10" width="6" y="246.5" x="197.5"></rect><rect stroke-width="1" stroke="#FFFFFF" ry="0" rx="0" fill="#1f78b4" height="11" width="6" y="244.5" x="209.5"></rect><rect stroke-width="1" stroke="#FFFFFF" ry="0" rx="0" fill="#1f78b4" height="11" width="6" y="243.5" x="221.5"></rect><rect stroke-width="1" stroke="#FFFFFF" ry="0" rx="0" fill="#1f78b4" height="11" width="6" y="243.5" x="233.5"></rect><rect stroke-width="1" stroke="#FFFFFF" ry="0" rx="0" fill="#1f78b4" height="11" width="6" y="241.5" x="245.5"></rect><rect stroke-width="1" stroke="#FFFFFF" ry="0" rx="0" fill="#1f78b4" height="12" width="6" y="240.5" x="258.5"></rect><rect stroke-width="1" stroke="#FFFFFF" ry="0" rx="0" fill="#1f78b4" height="12" width="6" y="240.5" x="270.5"></rect><rect stroke-width="1" stroke="#FFFFFF" ry="0" rx="0" fill="#1f78b4" height="12" width="6" y="239.5" x="282.5"></rect><rect stroke-width="1" stroke="#FFFFFF" ry="0" rx="0" fill="#1f78b4" height="12" width="6" y="238.5" x="294.5"></rect><rect stroke-width="1" stroke="#FFFFFF" ry="0" rx="0" fill="#1f78b4" height="13" width="6" y="237.5" x="306.5"></rect><rect stroke-width="1" stroke="#FFFFFF" ry="0" rx="0" fill="#1f78b4" height="13" width="6" y="237.5" x="318.5"></rect><rect stroke-width="1" stroke="#FFFFFF" ry="0" rx="0" fill="#1f78b4" height="13" width="6" y="236.5" x="331.5"></rect><rect stroke-width="1" stroke="#FFFFFF" ry="0" rx="0" fill="#1f78b4" height="14" width="6" y="233.5" x="343.5"></rect><rect stroke-width="1" stroke="#FFFFFF" ry="0" rx="0" fill="#1f78b4" height="15" width="6" y="231.5" x="355.5"></rect><rect stroke-width="1" stroke="#FFFFFF" ry="0" rx="0" fill="#1f78b4" height="17" width="6" y="228.5" x="367.5"></rect><rect stroke-width="1" stroke="#FFFFFF" ry="0" rx="0" fill="#1f78b4" height="17" width="6" y="227.5" x="379.5"></rect><rect stroke-width="1" stroke="#FFFFFF" ry="0" rx="0" fill="#1f78b4" height="19" width="6" y="224.5" x="391.5"></rect><rect stroke-width="1" stroke="#FFFFFF" ry="0" rx="0" fill="#1f78b4" height="21" width="6" y="221.5" x="404.5"></rect><rect stroke-width="1" stroke="#FFFFFF" ry="0" rx="0" fill="#1f78b4" height="22" width="6" y="214.5" x="416.5"></rect><rect stroke-width="1" stroke="#FFFFFF" ry="0" rx="0" fill="#1f78b4" height="22" width="6" y="212.5" x="428.5"></rect><rect stroke-width="1" stroke="#FFFFFF" ry="0" rx="0" fill="#1f78b4" height="24" width="6" y="210.5" x="440.5"></rect><rect stroke-width="1" stroke="#FFFFFF" ry="0" rx="0" fill="#1f78b4" height="25" width="6" y="208.5" x="452.5"></rect><rect stroke-width="1" stroke="#FFFFFF" ry="0" rx="0" fill="#1f78b4" height="25" width="6" y="207.5" x="464.5"></rect><rect stroke-width="1" stroke="#FFFFFF" ry="0" rx="0" fill="#1f78b4" height="27" width="6" y="205.5" x="477.5"></rect><rect stroke-width="1" stroke="#FFFFFF" ry="0" rx="0" fill="#1f78b4" height="27" width="6" y="204.5" x="489.5"></rect><rect stroke-width="1" stroke="#FFFFFF" ry="0" rx="0" fill="#1f78b4" height="27" width="6" y="204.5" x="501.5"></rect><rect stroke-width="1" stroke="#FFFFFF" ry="0" rx="0" fill="#1f78b4" height="27" width="6" y="204.5" x="513.5"></rect></g><g clip-path="none" transform="translate(67,46) scale(1 1)"  visibility="visible" class="highcharts-markers"></g><g clip-path="url(#highcharts-5)" transform="translate(67,46) scale(1 1)"  visibility="visible" class="highcharts-series"><rect stroke-width="1" stroke="#FFFFFF" ry="0" rx="0" fill="#b2df8a" height="11" width="6" y="263.5" x="2.5"></rect><rect stroke-width="1" stroke="#FFFFFF" ry="0" rx="0" fill="#b2df8a" height="11" width="6" y="263.5" x="14.5"></rect><rect stroke-width="1" stroke="#FFFFFF" ry="0" rx="0" fill="#b2df8a" height="11" width="6" y="263.5" x="26.5"></rect><rect stroke-width="1" stroke="#FFFFFF" ry="0" rx="0" fill="#b2df8a" height="12" width="6" y="262.5" x="39.5"></rect><rect stroke-width="1" stroke="#FFFFFF" ry="0" rx="0" fill="#b2df8a" height="12" width="6" y="262.5" x="51.5"></rect><rect stroke-width="1" stroke="#FFFFFF" ry="0" rx="0" fill="#b2df8a" height="12" width="6" y="262.5" x="63.5"></rect><rect stroke-width="1" stroke="#FFFFFF" ry="0" rx="0" fill="#b2df8a" height="12" width="6" y="262.5" x="75.5"></rect><rect stroke-width="1" stroke="#FFFFFF" ry="0" rx="0" fill="#b2df8a" height="11" width="6" y="262.5" x="87.5"></rect><rect stroke-width="1" stroke="#FFFFFF" ry="0" rx="0" fill="#b2df8a" height="12" width="6" y="260.5" x="99.5"></rect><rect stroke-width="1" stroke="#FFFFFF" ry="0" rx="0" fill="#b2df8a" height="12" width="6" y="260.5" x="112.5"></rect><rect stroke-width="1" stroke="#FFFFFF" ry="0" rx="0" fill="#b2df8a" height="12" width="6" y="260.5" x="124.5"></rect><rect stroke-width="1" stroke="#FFFFFF" ry="0" rx="0" fill="#b2df8a" height="13" width="6" y="259.5" x="136.5"></rect><rect stroke-width="1" stroke="#FFFFFF" ry="0" rx="0" fill="#b2df8a" height="12" width="6" y="259.5" x="148.5"></rect><rect stroke-width="1" stroke="#FFFFFF" ry="0" rx="0" fill="#b2df8a" height="13" width="6" y="258.5" x="160.5"></rect><rect stroke-width="1" stroke="#FFFFFF" ry="0" rx="0" fill="#b2df8a" height="13" width="6" y="257.5" x="172.5"></rect><rect stroke-width="1" stroke="#FFFFFF" ry="0" rx="0" fill="#b2df8a" height="13" width="6" y="257.5" x="185.5"></rect><rect stroke-width="1" stroke="#FFFFFF" ry="0" rx="0" fill="#b2df8a" height="14" width="6" y="256.5" x="197.5"></rect><rect stroke-width="1" stroke="#FFFFFF" ry="0" rx="0" fill="#b2df8a" height="15" width="6" y="255.5" x="209.5"></rect><rect stroke-width="1" stroke="#FFFFFF" ry="0" rx="0" fill="#b2df8a" height="16" width="6" y="254.5" x="221.5"></rect><rect stroke-width="1" stroke="#FFFFFF" ry="0" rx="0" fill="#b2df8a" height="16" width="6" y="254.5" x="233.5"></rect><rect stroke-width="1" stroke="#FFFFFF" ry="0" rx="0" fill="#b2df8a" height="17" width="6" y="252.5" x="245.5"></rect><rect stroke-width="1" stroke="#FFFFFF" ry="0" rx="0" fill="#b2df8a" height="17" width="6" y="252.5" x="258.5"></rect><rect stroke-width="1" stroke="#FFFFFF" ry="0" rx="0" fill="#b2df8a" height="17" width="6" y="252.5" x="270.5"></rect><rect stroke-width="1" stroke="#FFFFFF" ry="0" rx="0" fill="#b2df8a" height="18" width="6" y="251.5" x="282.5"></rect><rect stroke-width="1" stroke="#FFFFFF" ry="0" rx="0" fill="#b2df8a" height="19" width="6" y="250.5" x="294.5"></rect><rect stroke-width="1" stroke="#FFFFFF" ry="0" rx="0" fill="#b2df8a" height="19" width="6" y="250.5" x="306.5"></rect><rect stroke-width="1" stroke="#FFFFFF" ry="0" rx="0" fill="#b2df8a" height="19" width="6" y="250.5" x="318.5"></rect><rect stroke-width="1" stroke="#FFFFFF" ry="0" rx="0" fill="#b2df8a" height="20" width="6" y="249.5" x="331.5"></rect><rect stroke-width="1" stroke="#FFFFFF" ry="0" rx="0" fill="#b2df8a" height="21" width="6" y="247.5" x="343.5"></rect><rect stroke-width="1" stroke="#FFFFFF" ry="0" rx="0" fill="#b2df8a" height="22" width="6" y="246.5" x="355.5"></rect><rect stroke-width="1" stroke="#FFFFFF" ry="0" rx="0" fill="#b2df8a" height="22" width="6" y="245.5" x="367.5"></rect><rect stroke-width="1" stroke="#FFFFFF" ry="0" rx="0" fill="#b2df8a" height="22" width="6" y="244.5" x="379.5"></rect><rect stroke-width="1" stroke="#FFFFFF" ry="0" rx="0" fill="#b2df8a" height="22" width="6" y="243.5" x="391.5"></rect><rect stroke-width="1" stroke="#FFFFFF" ry="0" rx="0" fill="#b2df8a" height="23" width="6" y="242.5" x="404.5"></rect><rect stroke-width="1" stroke="#FFFFFF" ry="0" rx="0" fill="#b2df8a" height="23" width="6" y="236.5" x="416.5"></rect><rect stroke-width="1" stroke="#FFFFFF" ry="0" rx="0" fill="#b2df8a" height="24" width="6" y="234.5" x="428.5"></rect><rect stroke-width="1" stroke="#FFFFFF" ry="0" rx="0" fill="#b2df8a" height="23" width="6" y="234.5" x="440.5"></rect><rect stroke-width="1" stroke="#FFFFFF" ry="0" rx="0" fill="#b2df8a" height="24" width="6" y="233.5" x="452.5"></rect><rect stroke-width="1" stroke="#FFFFFF" ry="0" rx="0" fill="#b2df8a" height="25" width="6" y="232.5" x="464.5"></rect><rect stroke-width="1" stroke="#FFFFFF" ry="0" rx="0" fill="#b2df8a" height="25" width="6" y="232.5" x="477.5"></rect><rect stroke-width="1" stroke="#FFFFFF" ry="0" rx="0" fill="#b2df8a" height="25" width="6" y="231.5" x="489.5"></rect><rect stroke-width="1" stroke="#FFFFFF" ry="0" rx="0" fill="#b2df8a" height="25" width="6" y="231.5" x="501.5"></rect><rect stroke-width="1" stroke="#FFFFFF" ry="0" rx="0" fill="#b2df8a" height="25" width="6" y="231.5" x="513.5"></rect></g><g clip-path="none" transform="translate(67,46) scale(1 1)"  visibility="visible" class="highcharts-markers"></g><g clip-path="url(#highcharts-5)" transform="translate(67,46) scale(1 1)"  visibility="visible" class="highcharts-series"><rect stroke-width="1" stroke="#FFFFFF" ry="0" rx="0" fill="#33a02c" height="4" width="6" y="274.5" x="2.5"></rect><rect stroke-width="1" stroke="#FFFFFF" ry="0" rx="0" fill="#33a02c" height="4" width="6" y="274.5" x="14.5"></rect><rect stroke-width="1" stroke="#FFFFFF" ry="0" rx="0" fill="#33a02c" height="4" width="6" y="274.5" x="26.5"></rect><rect stroke-width="1" stroke="#FFFFFF" ry="0" rx="0" fill="#33a02c" height="4" width="6" y="274.5" x="39.5"></rect><rect stroke-width="1" stroke="#FFFFFF" ry="0" rx="0" fill="#33a02c" height="4" width="6" y="274.5" x="51.5"></rect><rect stroke-width="1" stroke="#FFFFFF" ry="0" rx="0" fill="#33a02c" height="4" width="6" y="274.5" x="63.5"></rect><rect stroke-width="1" stroke="#FFFFFF" ry="0" rx="0" fill="#33a02c" height="4" width="6" y="274.5" x="75.5"></rect><rect stroke-width="1" stroke="#FFFFFF" ry="0" rx="0" fill="#33a02c" height="5" width="6" y="273.5" x="87.5"></rect><rect stroke-width="1" stroke="#FFFFFF" ry="0" rx="0" fill="#33a02c" height="6" width="6" y="272.5" x="99.5"></rect><rect stroke-width="1" stroke="#FFFFFF" ry="0" rx="0" fill="#33a02c" height="6" width="6" y="272.5" x="112.5"></rect><rect stroke-width="1" stroke="#FFFFFF" ry="0" rx="0" fill="#33a02c" height="6" width="6" y="272.5" x="124.5"></rect><rect stroke-width="1" stroke="#FFFFFF" ry="0" rx="0" fill="#33a02c" height="5" width="6" y="272.5" x="136.5"></rect><rect stroke-width="1" stroke="#FFFFFF" ry="0" rx="0" fill="#33a02c" height="6" width="6" y="271.5" x="148.5"></rect><rect stroke-width="1" stroke="#FFFFFF" ry="0" rx="0" fill="#33a02c" height="6" width="6" y="271.5" x="160.5"></rect><rect stroke-width="1" stroke="#FFFFFF" ry="0" rx="0" fill="#33a02c" height="7" width="6" y="270.5" x="172.5"></rect><rect stroke-width="1" stroke="#FFFFFF" ry="0" rx="0" fill="#33a02c" height="7" width="6" y="270.5" x="185.5"></rect><rect stroke-width="1" stroke="#FFFFFF" ry="0" rx="0" fill="#33a02c" height="7" width="6" y="270.5" x="197.5"></rect><rect stroke-width="1" stroke="#FFFFFF" ry="0" rx="0" fill="#33a02c" height="7" width="6" y="270.5" x="209.5"></rect><rect stroke-width="1" stroke="#FFFFFF" ry="0" rx="0" fill="#33a02c" height="7" width="6" y="270.5" x="221.5"></rect><rect stroke-width="1" stroke="#FFFFFF" ry="0" rx="0" fill="#33a02c" height="7" width="6" y="270.5" x="233.5"></rect><rect stroke-width="1" stroke="#FFFFFF" ry="0" rx="0" fill="#33a02c" height="8" width="6" y="269.5" x="245.5"></rect><rect stroke-width="1" stroke="#FFFFFF" ry="0" rx="0" fill="#33a02c" height="8" width="6" y="269.5" x="258.5"></rect><rect stroke-width="1" stroke="#FFFFFF" ry="0" rx="0" fill="#33a02c" height="8" width="6" y="269.5" x="270.5"></rect><rect stroke-width="1" stroke="#FFFFFF" ry="0" rx="0" fill="#33a02c" height="8" width="6" y="269.5" x="282.5"></rect><rect stroke-width="1" stroke="#FFFFFF" ry="0" rx="0" fill="#33a02c" height="8" width="6" y="269.5" x="294.5"></rect><rect stroke-width="1" stroke="#FFFFFF" ry="0" rx="0" fill="#33a02c" height="8" width="6" y="269.5" x="306.5"></rect><rect stroke-width="1" stroke="#FFFFFF" ry="0" rx="0" fill="#33a02c" height="8" width="6" y="269.5" x="318.5"></rect><rect stroke-width="1" stroke="#FFFFFF" ry="0" rx="0" fill="#33a02c" height="8" width="6" y="269.5" x="331.5"></rect><rect stroke-width="1" stroke="#FFFFFF" ry="0" rx="0" fill="#33a02c" height="9" width="6" y="268.5" x="343.5"></rect><rect stroke-width="1" stroke="#FFFFFF" ry="0" rx="0" fill="#33a02c" height="9" width="6" y="268.5" x="355.5"></rect><rect stroke-width="1" stroke="#FFFFFF" ry="0" rx="0" fill="#33a02c" height="10" width="6" y="267.5" x="367.5"></rect><rect stroke-width="1" stroke="#FFFFFF" ry="0" rx="0" fill="#33a02c" height="10" width="6" y="266.5" x="379.5"></rect><rect stroke-width="1" stroke="#FFFFFF" ry="0" rx="0" fill="#33a02c" height="11" width="6" y="265.5" x="391.5"></rect><rect stroke-width="1" stroke="#FFFFFF" ry="0" rx="0" fill="#33a02c" height="11" width="6" y="265.5" x="404.5"></rect><rect stroke-width="1" stroke="#FFFFFF" ry="0" rx="0" fill="#33a02c" height="17" width="6" y="259.5" x="416.5"></rect><rect stroke-width="1" stroke="#FFFFFF" ry="0" rx="0" fill="#33a02c" height="17" width="6" y="258.5" x="428.5"></rect><rect stroke-width="1" stroke="#FFFFFF" ry="0" rx="0" fill="#33a02c" height="18" width="6" y="257.5" x="440.5"></rect><rect stroke-width="1" stroke="#FFFFFF" ry="0" rx="0" fill="#33a02c" height="18" width="6" y="257.5" x="452.5"></rect><rect stroke-width="1" stroke="#FFFFFF" ry="0" rx="0" fill="#33a02c" height="18" width="6" y="257.5" x="464.5"></rect><rect stroke-width="1" stroke="#FFFFFF" ry="0" rx="0" fill="#33a02c" height="18" width="6" y="257.5" x="477.5"></rect><rect stroke-width="1" stroke="#FFFFFF" ry="0" rx="0" fill="#33a02c" height="19" width="6" y="256.5" x="489.5"></rect><rect stroke-width="1" stroke="#FFFFFF" ry="0" rx="0" fill="#33a02c" height="19" width="6" y="256.5" x="501.5"></rect><rect stroke-width="1" stroke="#FFFFFF" ry="0" rx="0" fill="#33a02c" height="19" width="6" y="256.5" x="513.5"></rect></g><g clip-path="none" transform="translate(67,46) scale(1 1)"  visibility="visible" class="highcharts-markers"></g><g clip-path="url(#highcharts-5)" transform="translate(67,46) scale(1 1)"  visibility="visible" class="highcharts-series"><rect stroke-width="1" stroke="#FFFFFF" ry="0" rx="0" fill="#fb9a99" height="0" width="6" y="278.5" x="2.5"></rect><rect stroke-width="1" stroke="#FFFFFF" ry="0" rx="0" fill="#fb9a99" height="0" width="6" y="278.5" x="14.5"></rect><rect stroke-width="1" stroke="#FFFFFF" ry="0" rx="0" fill="#fb9a99" height="0" width="6" y="278.5" x="26.5"></rect><rect stroke-width="1" stroke="#FFFFFF" ry="0" rx="0" fill="#fb9a99" height="0" width="6" y="278.5" x="39.5"></rect><rect stroke-width="1" stroke="#FFFFFF" ry="0" rx="0" fill="#fb9a99" height="0" width="6" y="278.5" x="51.5"></rect><rect stroke-width="1" stroke="#FFFFFF" ry="0" rx="0" fill="#fb9a99" height="0" width="6" y="278.5" x="63.5"></rect><rect stroke-width="1" stroke="#FFFFFF" ry="0" rx="0" fill="#fb9a99" height="0" width="6" y="278.5" x="75.5"></rect><rect stroke-width="1" stroke="#FFFFFF" ry="0" rx="0" fill="#fb9a99" height="0" width="6" y="278.5" x="87.5"></rect><rect stroke-width="1" stroke="#FFFFFF" ry="0" rx="0" fill="#fb9a99" height="0" width="6" y="278.5" x="99.5"></rect><rect stroke-width="1" stroke="#FFFFFF" ry="0" rx="0" fill="#fb9a99" height="0" width="6" y="278.5" x="112.5"></rect><rect stroke-width="1" stroke="#FFFFFF" ry="0" rx="0" fill="#fb9a99" height="0" width="6" y="278.5" x="124.5"></rect><rect stroke-width="1" stroke="#FFFFFF" ry="0" rx="0" fill="#fb9a99" height="1" width="6" y="277.5" x="136.5"></rect><rect stroke-width="1" stroke="#FFFFFF" ry="0" rx="0" fill="#fb9a99" height="1" width="6" y="277.5" x="148.5"></rect><rect stroke-width="1" stroke="#FFFFFF" ry="0" rx="0" fill="#fb9a99" height="1" width="6" y="277.5" x="160.5"></rect><rect stroke-width="1" stroke="#FFFFFF" ry="0" rx="0" fill="#fb9a99" height="1" width="6" y="277.5" x="172.5"></rect><rect stroke-width="1" stroke="#FFFFFF" ry="0" rx="0" fill="#fb9a99" height="1" width="6" y="277.5" x="185.5"></rect><rect stroke-width="1" stroke="#FFFFFF" ry="0" rx="0" fill="#fb9a99" height="1" width="6" y="277.5" x="197.5"></rect><rect stroke-width="1" stroke="#FFFFFF" ry="0" rx="0" fill="#fb9a99" height="1" width="6" y="277.5" x="209.5"></rect><rect stroke-width="1" stroke="#FFFFFF" ry="0" rx="0" fill="#fb9a99" height="1" width="6" y="277.5" x="221.5"></rect><rect stroke-width="1" stroke="#FFFFFF" ry="0" rx="0" fill="#fb9a99" height="1" width="6" y="277.5" x="233.5"></rect><rect stroke-width="1" stroke="#FFFFFF" ry="0" rx="0" fill="#fb9a99" height="1" width="6" y="277.5" x="245.5"></rect><rect stroke-width="1" stroke="#FFFFFF" ry="0" rx="0" fill="#fb9a99" height="1" width="6" y="277.5" x="258.5"></rect><rect stroke-width="1" stroke="#FFFFFF" ry="0" rx="0" fill="#fb9a99" height="1" width="6" y="277.5" x="270.5"></rect><rect stroke-width="1" stroke="#FFFFFF" ry="0" rx="0" fill="#fb9a99" height="1" width="6" y="277.5" x="282.5"></rect><rect stroke-width="1" stroke="#FFFFFF" ry="0" rx="0" fill="#fb9a99" height="1" width="6" y="277.5" x="294.5"></rect><rect stroke-width="1" stroke="#FFFFFF" ry="0" rx="0" fill="#fb9a99" height="1" width="6" y="277.5" x="306.5"></rect><rect stroke-width="1" stroke="#FFFFFF" ry="0" rx="0" fill="#fb9a99" height="1" width="6" y="277.5" x="318.5"></rect><rect stroke-width="1" stroke="#FFFFFF" ry="0" rx="0" fill="#fb9a99" height="1" width="6" y="277.5" x="331.5"></rect><rect stroke-width="1" stroke="#FFFFFF" ry="0" rx="0" fill="#fb9a99" height="1" width="6" y="277.5" x="343.5"></rect><rect stroke-width="1" stroke="#FFFFFF" ry="0" rx="0" fill="#fb9a99" height="1" width="6" y="277.5" x="355.5"></rect><rect stroke-width="1" stroke="#FFFFFF" ry="0" rx="0" fill="#fb9a99" height="1" width="6" y="277.5" x="367.5"></rect><rect stroke-width="1" stroke="#FFFFFF" ry="0" rx="0" fill="#fb9a99" height="2" width="6" y="276.5" x="379.5"></rect><rect stroke-width="1" stroke="#FFFFFF" ry="0" rx="0" fill="#fb9a99" height="2" width="6" y="276.5" x="391.5"></rect><rect stroke-width="1" stroke="#FFFFFF" ry="0" rx="0" fill="#fb9a99" height="2" width="6" y="276.5" x="404.5"></rect><rect stroke-width="1" stroke="#FFFFFF" ry="0" rx="0" fill="#fb9a99" height="2" width="6" y="276.5" x="416.5"></rect><rect stroke-width="1" stroke="#FFFFFF" ry="0" rx="0" fill="#fb9a99" height="3" width="6" y="275.5" x="428.5"></rect><rect stroke-width="1" stroke="#FFFFFF" ry="0" rx="0" fill="#fb9a99" height="3" width="6" y="275.5" x="440.5"></rect><rect stroke-width="1" stroke="#FFFFFF" ry="0" rx="0" fill="#fb9a99" height="3" width="6" y="275.5" x="452.5"></rect><rect stroke-width="1" stroke="#FFFFFF" ry="0" rx="0" fill="#fb9a99" height="3" width="6" y="275.5" x="464.5"></rect><rect stroke-width="1" stroke="#FFFFFF" ry="0" rx="0" fill="#fb9a99" height="3" width="6" y="275.5" x="477.5"></rect><rect stroke-width="1" stroke="#FFFFFF" ry="0" rx="0" fill="#fb9a99" height="3" width="6" y="275.5" x="489.5"></rect><rect stroke-width="1" stroke="#FFFFFF" ry="0" rx="0" fill="#fb9a99" height="3" width="6" y="275.5" x="501.5"></rect><rect stroke-width="1" stroke="#FFFFFF" ry="0" rx="0" fill="#fb9a99" height="3" width="6" y="275.5" x="513.5"></rect></g><g clip-path="none" transform="translate(67,46) scale(1 1)"  visibility="visible" class="highcharts-markers"></g></g><text y="25" style="color:#333333;font-size:18px;fill:#333333;width:536px;"  class="highcharts-title" text-anchor="middle" x="300"><tspan>Policies Adopted by Quarter</tspan></text><g transform="translate(80,30)"  class="highcharts-legend"><rect visibility="visible" fill="white" stroke-width="1" stroke="#CCC" strokeWidth="1" height="80" width="229" y="0.5" x="0.5"></rect><g ><g><g transform="translate(8,3)"  class="highcharts-legend-item"><text y="15"  text-anchor="start" style="color:#333333;font-size:12px;font-weight:bold;cursor:pointer;fill:#333333;" x="21"><tspan>Research organisation</tspan></text><rect fill="#a6cee3"  height="12" width="16" y="4" x="0"></rect></g><g transform="translate(8,17)"  class="highcharts-legend-item"><text  text-anchor="start" style="color:#333333;font-size:12px;font-weight:bold;cursor:pointer;fill:#333333;" y="15" x="21">Funder</text><rect fill="#1f78b4"  height="12" width="16" y="4" x="0"></rect></g><g transform="translate(8,31)"  class="highcharts-legend-item"><text  text-anchor="start" style="color:#333333;font-size:12px;font-weight:bold;cursor:pointer;fill:#333333;" y="15" x="21"><tspan>Sub-unit of research organisation</tspan></text><rect fill="#b2df8a"  height="12" width="16" y="4" x="0"></rect></g><g transform="translate(8,45)"  class="highcharts-legend-item"><text  text-anchor="start" style="color:#333333;font-size:12px;font-weight:bold;cursor:pointer;fill:#333333;" y="15" x="21"><tspan>Funder and research organisation</tspan></text><rect fill="#33a02c"  height="12" width="16" y="4" x="0"></rect></g><g transform="translate(8,59)"  class="highcharts-legend-item"><text  text-anchor="start" style="color:#333333;font-size:12px;font-weight:bold;cursor:pointer;fill:#333333;" y="15" x="21"><tspan>Multiple research organisations</tspan></text><rect fill="#fb9a99"  height="12" width="16" y="4" x="0"></rect></g></g></g></g><g  class="highcharts-axis-labels highcharts-xaxis-labels"><text opacity="1" y="332" style="color:#606060;cursor:default;font-size:11px;fill:#606060;" transform="translate(0,0) rotate(-90 73.08139534883722 332)" text-anchor="end" x="73.08139534883722">2005-1</text><text opacity="1" y="332" style="color:#606060;cursor:default;font-size:11px;fill:#606060;" transform="translate(0,0) rotate(-90 85.24418604651163 332)" text-anchor="end" x="85.24418604651163">2005-2</text><text opacity="1" y="332" style="color:#606060;cursor:default;font-size:11px;fill:#606060;" transform="translate(0,0) rotate(-90 97.40697674418605 332)" text-anchor="end" x="97.40697674418605">2005-3</text><text opacity="1" y="332" style="color:#606060;cursor:default;font-size:11px;fill:#606060;" transform="translate(0,0) rotate(-90 109.56976744186046 332)" text-anchor="end" x="109.56976744186046">2005-4</text><text opacity="1" y="332" style="color:#606060;cursor:default;font-size:11px;fill:#606060;" transform="translate(0,0) rotate(-90 121.7325581395349 332)" text-anchor="end" x="121.7325581395349">2006-1</text><text opacity="1" y="332" style="color:#606060;cursor:default;font-size:11px;fill:#606060;" transform="translate(0,0) rotate(-90 133.8953488372093 332)" text-anchor="end" x="133.8953488372093">2006-2</text><text opacity="1" y="332" style="color:#606060;cursor:default;font-size:11px;fill:#606060;" transform="translate(0,0) rotate(-90 146.0581395348837 332)" text-anchor="end" x="146.0581395348837">2006-3</text><text opacity="1" y="332" style="color:#606060;cursor:default;font-size:11px;fill:#606060;" transform="translate(0,0) rotate(-90 158.22093023255812 332)" text-anchor="end" x="158.22093023255812">2006-4</text><text opacity="1" y="332" style="color:#606060;cursor:default;font-size:11px;fill:#606060;" transform="translate(0,0) rotate(-90 170.38372093023256 332)" text-anchor="end" x="170.38372093023256">2007-1</text><text opacity="1" y="332" style="color:#606060;cursor:default;font-size:11px;fill:#606060;" transform="translate(0,0) rotate(-90 182.54651162790697 332)" text-anchor="end" x="182.54651162790697">2007-2</text><text opacity="1" y="332" style="color:#606060;cursor:default;font-size:11px;fill:#606060;" transform="translate(0,0) rotate(-90 194.7093023255814 332)" text-anchor="end" x="194.7093023255814">2007-3</text><text opacity="1" y="332" style="color:#606060;cursor:default;font-size:11px;fill:#606060;" transform="translate(0,0) rotate(-90 206.87209302325581 332)" text-anchor="end" x="206.87209302325581">2007-4</text><text opacity="1" y="332" style="color:#606060;cursor:default;font-size:11px;fill:#606060;" transform="translate(0,0) rotate(-90 219.03488372093022 332)" text-anchor="end" x="219.03488372093022">2008-1</text><text opacity="1" y="332" style="color:#606060;cursor:default;font-size:11px;fill:#606060;" transform="translate(0,0) rotate(-90 231.19767441860466 332)" text-anchor="end" x="231.19767441860466">2008-2</text><text opacity="1" y="332" style="color:#606060;cursor:default;font-size:11px;fill:#606060;" transform="translate(0,0) rotate(-90 243.36046511627907 332)" text-anchor="end" x="243.36046511627907">2008-3</text><text opacity="1" y="332" style="color:#606060;cursor:default;font-size:11px;fill:#606060;" transform="translate(0,0) rotate(-90 255.52325581395345 332)" text-anchor="end" x="255.52325581395345">2008-4</text><text opacity="1" y="332" style="color:#606060;cursor:default;font-size:11px;fill:#606060;" transform="translate(0,0) rotate(-90 267.686046511628 332)" text-anchor="end" x="267.686046511628">2009-1</text><text opacity="1" y="332" style="color:#606060;cursor:default;font-size:11px;fill:#606060;" transform="translate(0,0) rotate(-90 279.84883720930236 332)" text-anchor="end" x="279.84883720930236">2009-2</text><text opacity="1" y="332" style="color:#606060;cursor:default;font-size:11px;fill:#606060;" transform="translate(0,0) rotate(-90 292.01162790697674 332)" text-anchor="end" x="292.01162790697674">2009-3</text><text opacity="1" y="332" style="color:#606060;cursor:default;font-size:11px;fill:#606060;" transform="translate(0,0) rotate(-90 304.17441860465124 332)" text-anchor="end" x="304.17441860465124">2009-4</text><text opacity="1" y="332" style="color:#606060;cursor:default;font-size:11px;fill:#606060;" transform="translate(0,0) rotate(-90 316.3372093023256 332)" text-anchor="end" x="316.3372093023256">2010-1</text><text opacity="1" y="332" style="color:#606060;cursor:default;font-size:11px;fill:#606060;" transform="translate(0,0) rotate(-90 328.5 332)" text-anchor="end" x="328.5">2010-2</text><text opacity="1" y="332" style="color:#606060;cursor:default;font-size:11px;fill:#606060;" transform="translate(0,0) rotate(-90 340.66279069767444 332)" text-anchor="end" x="340.66279069767444">2010-3</text><text opacity="1" y="332" style="color:#606060;cursor:default;font-size:11px;fill:#606060;" transform="translate(0,0) rotate(-90 352.8255813953488 332)" text-anchor="end" x="352.8255813953488">2010-4</text><text opacity="1" y="332" style="color:#606060;cursor:default;font-size:11px;fill:#606060;" transform="translate(0,0) rotate(-90 364.98837209302326 332)" text-anchor="end" x="364.98837209302326">2011-1</text><text opacity="1" y="332" style="color:#606060;cursor:default;font-size:11px;fill:#606060;" transform="translate(0,0) rotate(-90 377.1511627906977 332)" text-anchor="end" x="377.1511627906977">2011-2</text><text opacity="1" y="332" style="color:#606060;cursor:default;font-size:11px;fill:#606060;" transform="translate(0,0) rotate(-90 389.3139534883721 332)" text-anchor="end" x="389.3139534883721">2011-3</text><text opacity="1" y="332" style="color:#606060;cursor:default;font-size:11px;fill:#606060;" transform="translate(0,0) rotate(-90 401.4767441860465 332)" text-anchor="end" x="401.4767441860465">2011-4</text><text opacity="1" y="332" style="color:#606060;cursor:default;font-size:11px;fill:#606060;" transform="translate(0,0) rotate(-90 413.63953488372096 332)" text-anchor="end" x="413.63953488372096">2012-1</text><text opacity="1" y="332" style="color:#606060;cursor:default;font-size:11px;fill:#606060;" transform="translate(0,0) rotate(-90 425.80232558139534 332)" text-anchor="end" x="425.80232558139534">2012-2</text><text opacity="1" y="332" style="color:#606060;cursor:default;font-size:11px;fill:#606060;" transform="translate(0,0) rotate(-90 437.9651162790698 332)" text-anchor="end" x="437.9651162790698">2012-3</text><text opacity="1" y="332" style="color:#606060;cursor:default;font-size:11px;fill:#606060;" transform="translate(0,0) rotate(-90 450.1279069767442 332)" text-anchor="end" x="450.1279069767442">2012-4</text><text opacity="1" y="332" style="color:#606060;cursor:default;font-size:11px;fill:#606060;" transform="translate(0,0) rotate(-90 462.2906976744186 332)" text-anchor="end" x="462.2906976744186">2013-1</text><text opacity="1" y="332" style="color:#606060;cursor:default;font-size:11px;fill:#606060;" transform="translate(0,0) rotate(-90 474.45348837209303 332)" text-anchor="end" x="474.45348837209303">2013-2</text><text opacity="1" y="332" style="color:#606060;cursor:default;font-size:11px;fill:#606060;" transform="translate(0,0) rotate(-90 486.6162790697675 332)" text-anchor="end" x="486.6162790697675">2013-3</text><text opacity="1" y="332" style="color:#606060;cursor:default;font-size:11px;fill:#606060;" transform="translate(0,0) rotate(-90 498.77906976744185 332)" text-anchor="end" x="498.77906976744185">2013-4</text><text opacity="1" y="332" style="color:#606060;cursor:default;font-size:11px;fill:#606060;" transform="translate(0,0) rotate(-90 510.9418604651163 332)" text-anchor="end" x="510.9418604651163">2014-1</text><text opacity="1" y="332" style="color:#606060;cursor:default;font-size:11px;fill:#606060;" transform="translate(0,0) rotate(-90 523.1046511627907 332)" text-anchor="end" x="523.1046511627907">2014-2</text><text opacity="1" y="332" style="color:#606060;cursor:default;font-size:11px;fill:#606060;" transform="translate(0,0) rotate(-90 535.267441860465 332)" text-anchor="end" x="535.267441860465">2014-3</text><text opacity="1" y="332" style="color:#606060;cursor:default;font-size:11px;fill:#606060;" transform="translate(0,0) rotate(-90 547.4302325581396 332)" text-anchor="end" x="547.4302325581396">2014-4</text><text opacity="1" y="332" style="color:#606060;cursor:default;font-size:11px;fill:#606060;" transform="translate(0,0) rotate(-90 559.593023255814 332)" text-anchor="end" x="559.593023255814">2015-1</text><text opacity="1" y="332" style="color:#606060;cursor:default;font-size:11px;fill:#606060;" transform="translate(0,0) rotate(-90 571.7558139534884 332)" text-anchor="end" x="571.7558139534884">2015-2</text><text opacity="1" y="332" style="color:#606060;cursor:default;font-size:11px;fill:#606060;" transform="translate(0,0) rotate(-90 583.9186046511628 332)" text-anchor="end" x="583.9186046511628">2015-3</text></g><g  class="highcharts-axis-labels highcharts-yaxis-labels"><text opacity="1" y="329.5" style="width:178px;color:#606060;cursor:default;font-size:11px;fill:#606060;" text-anchor="end" x="52">0</text><text opacity="1" y="260" style="width:178px;color:#606060;cursor:default;font-size:11px;fill:#606060;" text-anchor="end" x="52">200</text><text opacity="1" y="190.5" style="width:178px;color:#606060;cursor:default;font-size:11px;fill:#606060;" text-anchor="end" x="52">400</text><text opacity="1" y="121.00000000000003" style="width:178px;color:#606060;cursor:default;font-size:11px;fill:#606060;" text-anchor="end" x="52">600</text><text opacity="1" y="51.5" style="width:178px;color:#606060;cursor:default;font-size:11px;fill:#606060;" text-anchor="end" x="52">800</text></g><g transform="translate(0,-9999)" style="cursor:default;padding:0;white-space:nowrap;"  class="highcharts-tooltip"><path transform="translate(1, 1)" stroke-width="5" stroke-opacity="0.049999999999999996" stroke="black"  d="M 3 0 L 13 0 C 16 0 16 0 16 3 L 16 13 C 16 16 16 16 13 16 L 3 16 C 0 16 0 16 0 13 L 0 3 C 0 0 0 0 3 0" fill="none"></path><path transform="translate(1, 1)" stroke-width="3" stroke-opacity="0.09999999999999999" stroke="black"  d="M 3 0 L 13 0 C 16 0 16 0 16 3 L 16 13 C 16 16 16 16 13 16 L 3 16 C 0 16 0 16 0 13 L 0 3 C 0 0 0 0 3 0" fill="none"></path><path transform="translate(1, 1)" stroke-width="1" stroke-opacity="0.15" stroke="black"  d="M 3 0 L 13 0 C 16 0 16 0 16 3 L 16 13 C 16 16 16 16 13 16 L 3 16 C 0 16 0 16 0 13 L 0 3 C 0 0 0 0 3 0" fill="none"></path><path d="M 3 0 L 13 0 C 16 0 16 0 16 3 L 16 13 C 16 16 16 16 13 16 L 3 16 C 0 16 0 16 0 13 L 0 3 C 0 0 0 0 3 0" fill="rgb(249, 249, 249)" fill-opacity=" .85"></path><text y="21" style="font-size:12px;color:#333333;fill:#333333;"  x="8"></text></g><text y="395" style="cursor:pointer;color:#909090;font-size:9px;fill:#909090;"  text-anchor="end" x="590">Highcharts.com</text></svg>